<svg width="206" height="20" viewBox="0 0 206 20" fill="none" xmlns="http://www.w3.org/2000/svg">
<path d="M0.761364 15H2.52273V9.31818H5.70455C5.83239 9.31818 5.95312 9.31818 6.07386 9.31108L9.14205 15H11.1875L7.89915 8.99148C9.75284 8.35938 10.6193 6.84659 10.6193 4.91477C10.6193 2.34375 9.08523 0.454545 5.67614 0.454545H0.761364V15ZM2.52273 7.72727V2.01705H5.61932C7.97727 2.01705 8.88636 3.16761 8.88636 4.91477C8.88636 6.66193 7.97727 7.72727 5.64773 7.72727H2.52273ZM17.6417 15.2273C20.5962 15.2273 22.5849 12.983 22.5849 9.60227C22.5849 6.19318 20.5962 3.94886 17.6417 3.94886C14.6871 3.94886 12.6985 6.19318 12.6985 9.60227C12.6985 12.983 14.6871 15.2273 17.6417 15.2273ZM17.6417 13.7216C15.3974 13.7216 14.3746 11.7898 14.3746 9.60227C14.3746 7.41477 15.3974 5.45455 17.6417 5.45455C19.886 5.45455 20.9087 7.41477 20.9087 9.60227C20.9087 11.7898 19.886 13.7216 17.6417 13.7216ZM26.8196 0.454545H25.1435V15H26.8196V0.454545ZM31.5657 0.454545H29.8896V15H31.5657V0.454545ZM34.6357 15H36.3118V4.09091H34.6357V15ZM35.4879 2.27273C36.1413 2.27273 36.6811 1.76136 36.6811 1.13636C36.6811 0.511364 36.1413 0 35.4879 0C34.8345 0 34.2947 0.511364 34.2947 1.13636C34.2947 1.76136 34.8345 2.27273 35.4879 2.27273ZM41.0579 8.4375C41.0579 6.53409 42.2369 5.45455 43.842 5.45455C45.3974 5.45455 46.342 6.47017 46.342 8.18182V15H48.0181V8.06818C48.0181 5.28409 46.5337 3.94886 44.3249 3.94886C42.6772 3.94886 41.6545 4.6875 41.1431 5.79545H41.0011V4.09091H39.3817V15H41.0579V8.4375ZM55.4844 19.3182C58.098 19.3182 60.2003 18.125 60.2003 15.3125V4.09091H58.581V5.82386H58.4105C58.0412 5.25568 57.3594 3.94886 55.2287 3.94886C52.473 3.94886 50.5696 6.13636 50.5696 9.48864C50.5696 12.8977 52.5582 14.8295 55.2003 14.8295C57.331 14.8295 58.0128 13.5795 58.3821 12.983H58.5241V15.1989C58.5241 17.017 57.2457 17.8409 55.4844 17.8409C53.5028 17.8409 52.8068 16.7969 52.3594 16.1932L51.0241 17.1307C51.706 18.2741 53.0483 19.3182 55.4844 19.3182ZM55.4276 13.3239C53.3253 13.3239 52.2457 11.733 52.2457 9.46023C52.2457 7.24432 53.2969 5.45455 55.4276 5.45455C57.473 5.45455 58.5526 7.10227 58.5526 9.46023C58.5526 11.875 57.4446 13.3239 55.4276 13.3239ZM77.0753 4.09091H78.7798C78.7017 1.89631 76.6776 0.255681 73.8651 0.255681C71.081 0.255681 68.8935 1.875 68.8935 4.31818C68.8935 6.27841 70.3139 7.44318 72.5866 8.09659L74.3764 8.60795C75.9105 9.03409 77.2741 9.57386 77.2741 11.0227C77.2741 12.6136 75.7401 13.6648 73.723 13.6648C71.9901 13.6648 70.456 12.8977 70.3139 11.25H68.4957C68.6662 13.6364 70.598 15.2557 73.723 15.2557C77.0753 15.2557 78.9787 13.4091 78.9787 11.0511C78.9787 8.32386 76.3935 7.44318 74.8878 7.04545L73.4105 6.64773C72.331 6.36364 70.598 5.79545 70.598 4.23295C70.598 2.84091 71.8764 1.81818 73.8082 1.81818C75.5696 1.81818 76.9048 2.65625 77.0753 4.09091ZM86.0792 15.2273C88.494 15.2273 90.0849 13.75 90.369 11.8182H88.6928C88.3803 13.0114 87.386 13.7216 86.0792 13.7216C84.0906 13.7216 82.8121 12.0739 82.8121 9.54545C82.8121 7.07386 84.119 5.45455 86.0792 5.45455C87.5565 5.45455 88.4371 6.36364 88.6928 7.35795H90.369C90.0849 5.3125 88.3519 3.94886 86.0508 3.94886C83.0962 3.94886 81.136 6.27841 81.136 9.60227C81.136 12.8693 83.011 15.2273 86.0792 15.2273ZM97.2511 15.2273C100.206 15.2273 102.194 12.983 102.194 9.60227C102.194 6.19318 100.206 3.94886 97.2511 3.94886C94.2965 3.94886 92.3079 6.19318 92.3079 9.60227C92.3079 12.983 94.2965 15.2273 97.2511 15.2273ZM97.2511 13.7216C95.0067 13.7216 93.984 11.7898 93.984 9.60227C93.984 7.41477 95.0067 5.45455 97.2511 5.45455C99.4954 5.45455 100.518 7.41477 100.518 9.60227C100.518 11.7898 99.4954 13.7216 97.2511 13.7216ZM104.753 19.0909H106.429V13.3239H106.571C106.94 13.9205 107.651 15.2273 109.753 15.2273C112.48 15.2273 114.384 13.0398 114.384 9.57386C114.384 6.13636 112.48 3.94886 109.724 3.94886C107.594 3.94886 106.94 5.25568 106.571 5.82386H106.372V4.09091H104.753V19.0909ZM106.401 9.54545C106.401 7.10227 107.48 5.45455 109.526 5.45455C111.656 5.45455 112.707 7.24432 112.707 9.54545C112.707 11.875 111.628 13.7216 109.526 13.7216C107.509 13.7216 106.401 12.017 106.401 9.54545ZM121.514 15.2273C123.73 15.2273 125.349 14.1193 125.861 12.4716L124.241 12.017C123.815 13.1534 122.828 13.7216 121.514 13.7216C119.547 13.7216 118.19 12.4503 118.112 10.1136H126.031V9.40341C126.031 5.34091 123.616 3.94886 121.344 3.94886C118.389 3.94886 116.429 6.27841 116.429 9.63068C116.429 12.983 118.361 15.2273 121.514 15.2273ZM118.112 8.66477C118.226 6.96733 119.426 5.45455 121.344 5.45455C123.162 5.45455 124.327 6.81818 124.327 8.66477H118.112ZM136.308 6.53409C135.783 4.9858 134.604 3.94886 132.445 3.94886C130.143 3.94886 128.439 5.25568 128.439 7.10227C128.439 8.60795 129.334 9.61648 131.337 10.0852L133.155 10.5114C134.256 10.767 134.774 11.2926 134.774 12.0455C134.774 12.983 133.78 13.75 132.217 13.75C130.847 13.75 129.987 13.1605 129.689 11.9886L128.098 12.3864C128.489 14.2401 130.016 15.2273 132.246 15.2273C134.781 15.2273 136.507 13.8423 136.507 11.9602C136.507 10.4403 135.555 9.48153 133.609 9.00568L131.99 8.60795C130.697 8.28835 130.115 7.85511 130.115 7.01705C130.115 6.07955 131.109 5.39773 132.445 5.39773C133.908 5.39773 134.511 6.20739 134.803 6.96023L136.308 6.53409ZM152.837 4.09091H154.542C154.463 1.89631 152.439 0.255681 149.627 0.255681C146.843 0.255681 144.655 1.875 144.655 4.31818C144.655 6.27841 146.076 7.44318 148.348 8.09659L150.138 8.60795C151.672 9.03409 153.036 9.57386 153.036 11.0227C153.036 12.6136 151.502 13.6648 149.485 13.6648C147.752 13.6648 146.218 12.8977 146.076 11.25H144.257C144.428 13.6364 146.36 15.2557 149.485 15.2557C152.837 15.2557 154.74 13.4091 154.74 11.0511C154.74 8.32386 152.155 7.44318 150.65 7.04545L149.172 6.64773C148.093 6.36364 146.36 5.79545 146.36 4.23295C146.36 2.84091 147.638 1.81818 149.57 1.81818C151.331 1.81818 152.667 2.65625 152.837 4.09091ZM161.841 15.2273C164.256 15.2273 165.847 13.75 166.131 11.8182H164.455C164.142 13.0114 163.148 13.7216 161.841 13.7216C159.852 13.7216 158.574 12.0739 158.574 9.54545C158.574 7.07386 159.881 5.45455 161.841 5.45455C163.318 5.45455 164.199 6.36364 164.455 7.35795H166.131C165.847 5.3125 164.114 3.94886 161.812 3.94886C158.858 3.94886 156.898 6.27841 156.898 9.60227C156.898 12.8693 158.773 15.2273 161.841 15.2273ZM170.257 8.4375C170.257 6.53409 171.472 5.45455 173.126 5.45455C174.703 5.45455 175.655 6.44886 175.655 8.18182V15H177.331V8.06818C177.331 5.26278 175.839 3.94886 173.609 3.94886C171.891 3.94886 170.911 4.66619 170.399 5.79545H170.257V0.454545H168.581V15H170.257V8.4375ZM184.829 15.2273C187.784 15.2273 189.772 12.983 189.772 9.60227C189.772 6.19318 187.784 3.94886 184.829 3.94886C181.875 3.94886 179.886 6.19318 179.886 9.60227C179.886 12.983 181.875 15.2273 184.829 15.2273ZM184.829 13.7216C182.585 13.7216 181.562 11.7898 181.562 9.60227C181.562 7.41477 182.585 5.45455 184.829 5.45455C187.074 5.45455 188.096 7.41477 188.096 9.60227C188.096 11.7898 187.074 13.7216 184.829 13.7216ZM196.763 15.2273C199.717 15.2273 201.706 12.983 201.706 9.60227C201.706 6.19318 199.717 3.94886 196.763 3.94886C193.808 3.94886 191.82 6.19318 191.82 9.60227C191.82 12.983 193.808 15.2273 196.763 15.2273ZM196.763 13.7216C194.518 13.7216 193.496 11.7898 193.496 9.60227C193.496 7.41477 194.518 5.45455 196.763 5.45455C199.007 5.45455 200.03 7.41477 200.03 9.60227C200.03 11.7898 199.007 13.7216 196.763 13.7216ZM205.941 0.454545H204.265V15H205.941V0.454545Z" fill="black"/>
</svg>
